<svg width="130" height="13" viewBox="0 0 130 13" version="1.1" xmlns="http://www.w3.org/2000/svg" xmlns:xlink="http://www.w3.org/1999/xlink">
<g id="Canvas" fill="none">
<g id="MC Logotype">
<path fill-rule="evenodd" clip-rule="evenodd" d="M 12.6787 11.4532C 12.7302 11.6843 12.6272 11.864 12.3698 11.864L 11.7004 11.864C 11.5717 11.864 11.443 11.7357 11.3915 11.6329L 9.89838 3.03021C 9.87263 3.03021 9.84689 3.03021 9.82115 3.03021L 6.73193 11.8384C 6.70618 11.9411 6.55172 12.0181 6.44875 12.0181L 6.13983 12.0181C 6.03685 12.0181 5.88239 11.9411 5.85665 11.8384L 2.74168 3.03021C 2.71594 3.03021 2.6902 3.03021 2.66445 3.03021L 1.19707 11.6329C 1.17133 11.7613 1.04261 11.864 0.888151 11.864L 0.321794 11.864C 0.0643588 11.864 -0.0386153 11.71 0.0128718 11.4532L 2.17533 0.231118C 2.20107 0.102719 2.35553 0 2.48425 0L 2.74168 0C 2.8704 0 2.99912 0.0770393 3.02486 0.179758L 6.34577 9.37311C 6.37152 9.37311 6.39726 9.37311 6.42301 9.37311L 9.69243 0.179758C 9.71817 0.0770393 9.84689 0 9.97561 0L 10.233 0C 10.3618 0 10.4905 0.102719 10.542 0.231118L 12.6787 11.4532ZM 26.786 11.4274C 26.889 11.6329 26.7603 11.864 26.5028 11.864L 25.8335 11.864C 25.6791 11.864 25.5761 11.7613 25.5503 11.6842L 24.3146 8.93651L 18.3679 8.93651L 17.158 11.6842C 17.1322 11.7613 17.0292 11.864 16.8748 11.864L 16.2054 11.864C 15.948 11.864 15.8193 11.6586 15.9223 11.4274L 21.0195 0.205393C 21.071 0.102674 21.1482 0.0256348 21.3027 0.0256348L 21.4314 0.0256348C 21.5858 0.0256348 21.6631 0.102674 21.7146 0.205393L 26.786 11.4274ZM 23.8513 7.88385C 23.0275 6.06059 22.2294 4.23733 21.4056 2.41406L 21.2769 2.41406L 18.8313 7.88385L 23.8513 7.88385ZM 33.0417 5.31571C 31.6258 4.72508 30.7763 4.08308 30.7763 2.95317C 30.7763 2.25982 31.3169 1.10423 33.0932 1.10423C 34.1229 1.10423 35.1784 1.79758 35.2814 1.87462C 35.5388 2.0287 35.719 1.95166 35.8735 1.72054C 35.9507 1.61782 36.0022 1.51511 36.0794 1.41239C 36.2854 1.10423 36.0794 0.898792 35.9765 0.847432C 35.9765 0.847432 34.7665 0 33.1189 0C 30.4674 0 29.5663 1.82326 29.5663 2.97885C 29.5663 4.87915 30.6733 5.62387 32.5011 6.44562C 34.4319 7.24169 35.4359 7.93505 35.4359 9.09063C 35.4359 10.0665 34.5606 10.9396 33.1962 10.9396C 31.7031 10.9396 30.4931 9.75831 30.3644 9.68127C 30.1327 9.47583 29.9525 9.60423 29.7723 9.83535C 29.6951 9.93807 29.6178 10.0408 29.5149 10.1435C 29.3089 10.4517 29.4891 10.6057 29.6178 10.7085C 29.8238 10.9139 31.1624 12.0695 33.1447 12.0695C 35.1012 12.0695 36.7488 10.8112 36.7488 9.06495C 36.7745 7.08761 35.3071 6.24018 33.0417 5.31571ZM 46.7115 0.179932L 39.6063 0.179932C 39.4261 0.179932 39.2974 0.33401 39.2974 0.488089L 39.2974 0.976004C 39.2974 1.13008 39.4261 1.28416 39.6063 1.28416L 42.5153 1.28416L 42.5153 11.5304C 42.5153 11.7101 42.6698 11.8385 42.8242 11.8385L 43.4678 11.8385C 43.648 11.8385 43.7767 11.6845 43.7767 11.5304L 43.7767 1.28416L 46.6857 1.28416C 46.866 1.28416 46.9947 1.13008 46.9947 0.976004L 46.9947 0.488089C 47.0204 0.33401 46.8917 0.179932 46.7115 0.179932ZM 57.4466 0.179932L 50.8563 0.179932C 50.6761 0.179932 50.5474 0.33401 50.5474 0.488089L 50.5474 11.5304C 50.5474 11.7101 50.6761 11.8385 50.8563 11.8385L 57.4466 11.8385C 57.6268 11.8385 57.7555 11.6845 57.7555 11.5304L 57.7555 11.0425C 57.7555 10.8884 57.6268 10.7343 57.4466 10.7343L 51.8088 10.7343L 51.8088 6.47147L 56.6228 6.47147C 56.7773 6.47147 56.9318 6.34307 56.9318 6.16332L 56.9318 5.6754C 56.9318 5.52132 56.7773 5.36724 56.6228 5.36724L 51.8088 5.36724L 51.8088 1.28416L 57.4209 1.28416C 57.6011 1.28416 57.7298 1.13008 57.7298 0.976004L 57.7298 0.488089C 57.7555 0.33401 57.6268 0.179932 57.4466 0.179932ZM 67.9241 7.1391L 70.2153 11.3763C 70.344 11.5817 70.2153 11.8642 69.9321 11.8642L 69.0826 11.8642C 68.9281 11.8642 68.8509 11.7871 68.8251 11.7101L 66.6112 7.29318L 63.3933 7.29318L 63.3933 11.556C 63.3933 11.7358 63.2388 11.8642 63.0843 11.8642L 62.4408 11.8642C 62.2606 11.8642 62.1318 11.7101 62.1318 11.556L 62.1318 0.513723C 62.1318 0.333965 62.2606 0.205566 62.4408 0.205566L 66.7657 0.205566C 68.7737 0.205566 70.4212 1.77203 70.4212 3.74937C 70.3955 5.26448 69.3915 6.54847 67.9241 7.1391ZM 69.0828 3.74926C 69.0828 2.49095 67.9501 1.38672 66.6629 1.38672L 63.4192 1.38672L 63.4192 6.18883L 66.6629 6.18883C 67.9758 6.18883 69.0828 5.11028 69.0828 3.74926ZM 83.602 9.50147C 83.499 9.42443 83.3703 9.42443 83.1901 9.55282C 82.3148 10.2205 81.4395 10.8111 79.9979 10.8111C 77.3463 10.8111 75.3383 8.60267 75.3383 6.00902C 75.3383 3.41536 77.372 1.2069 79.9979 1.2069C 81.1306 1.2069 82.3148 1.69482 83.1901 2.46521C 83.3703 2.64497 83.499 2.64497 83.6277 2.49089L 84.0911 2.02866C 84.2198 1.90026 84.2198 1.69482 84.0653 1.56642C 82.9326 0.59059 81.6969 0.0256348 80.0236 0.0256348C 76.6769 0.0256348 73.9739 2.72201 73.9739 6.06038C 73.9739 9.39875 76.6769 12.0438 80.0236 12.0438C 81.5167 12.0438 82.9584 11.5302 84.0911 10.4259C 84.2198 10.2975 84.2455 10.0664 84.1168 9.9637L 83.602 9.50147ZM 94.44 10.7343L 89.6259 10.7343L 89.6259 0.488089C 89.6259 0.30833 89.4715 0.179932 89.317 0.179932L 88.6734 0.179932C 88.4932 0.179932 88.3645 0.33401 88.3645 0.488089L 88.3645 11.5304C 88.3645 11.7101 88.4932 11.8385 88.6734 11.8385L 94.4657 11.8385C 94.6459 11.8385 94.7746 11.6845 94.7746 11.5304L 94.7746 11.0425C 94.7746 10.8884 94.6202 10.7343 94.44 10.7343ZM 108.007 11.4274C 108.11 11.6329 107.981 11.864 107.724 11.864L 107.054 11.864C 106.9 11.864 106.797 11.7613 106.771 11.6842L 105.536 8.93651L 99.5888 8.93651L 98.3789 11.6842C 98.3532 11.7613 98.2502 11.864 98.0957 11.864L 97.4264 11.864C 97.169 11.864 97.0402 11.6586 97.1432 11.4274L 102.24 0.205393C 102.292 0.102674 102.369 0.0256348 102.524 0.0256348L 102.678 0.0256348C 102.833 0.0256348 102.91 0.102674 102.961 0.205393L 108.007 11.4274ZM 105.098 7.88385C 104.274 6.06059 103.476 4.23733 102.652 2.41406L 102.524 2.41406L 100.078 7.88385L 105.098 7.88385ZM 114.288 5.31571C 112.872 4.72508 112.023 4.08308 112.023 2.95317C 112.023 2.25982 112.563 1.10423 114.34 1.10423C 115.37 1.10423 116.425 1.79758 116.528 1.87462C 116.785 2.0287 116.966 1.95166 117.12 1.72054C 117.197 1.61782 117.249 1.51511 117.326 1.41239C 117.532 1.10423 117.326 0.898792 117.223 0.847432C 117.223 0.847432 116.013 0 114.366 0C 111.714 0 110.813 1.82326 110.813 2.97885C 110.813 4.87915 111.92 5.62387 113.748 6.44562C 115.678 7.24169 116.682 7.93505 116.682 9.09063C 116.682 10.0665 115.807 10.9396 114.443 10.9396C 112.95 10.9396 111.74 9.75831 111.611 9.68127C 111.379 9.47583 111.199 9.60423 111.019 9.83535C 110.942 9.93807 110.839 10.0408 110.761 10.1435C 110.555 10.4517 110.736 10.6057 110.864 10.7085C 111.07 10.9139 112.409 12.0695 114.391 12.0695C 116.348 12.0695 117.995 10.8112 117.995 9.06495C 117.995 7.08761 116.554 6.24018 114.288 5.31571ZM 124.869 5.31571C 123.453 4.72508 122.603 4.08308 122.603 2.95317C 122.603 2.25982 123.144 1.10423 124.92 1.10423C 125.95 1.10423 127.006 1.79758 127.109 1.87462C 127.366 2.0287 127.546 1.95166 127.701 1.72054C 127.778 1.61782 127.829 1.51511 127.907 1.41239C 128.113 1.10423 127.907 0.898792 127.804 0.847432C 127.804 0.847432 126.594 0 124.946 0C 122.295 0 121.393 1.82326 121.393 2.97885C 121.393 4.87915 122.5 5.62387 124.328 6.44562C 126.259 7.24169 127.263 7.93505 127.263 9.09063C 127.263 10.0665 126.388 10.9396 125.023 10.9396C 123.53 10.9396 122.32 9.75831 122.192 9.68127C 121.96 9.47583 121.78 9.60423 121.599 9.83535C 121.522 9.93807 121.419 10.0408 121.342 10.1435C 121.136 10.4517 121.316 10.6057 121.445 10.7085C 121.651 10.9139 122.99 12.0695 124.972 12.0695C 126.928 12.0695 128.576 10.8112 128.576 9.06495C 128.602 7.08761 127.134 6.24018 124.869 5.31571Z" transform="translate(0.808105 0.000244141)" fill="white"/>
</g>
</g>
</svg>

